<svg width="16" height="16" viewBox="0 0 16 16" fill="none" xmlns="http://www.w3.org/2000/svg">
<path d="M8 1C11.866 1 15 4.13401 15 8C15 11.866 11.866 15 8 15C4.13401 15 1 11.866 1 8C1 4.13401 4.13401 1 8 1ZM8 2.00224C4.68753 2.00224 2.00224 4.68753 2.00224 8C2.00224 11.3125 4.68753 13.9978 8 13.9978C11.3125 13.9978 13.9978 11.3125 13.9978 8C13.9978 4.68753 11.3125 2.00224 8 2.00224ZM8.67095 7.22991L8.67119 7.24832L8.67117 9.69752L8.67999 9.69276C8.93916 9.55557 9.26695 9.59551 9.48569 9.81104L9.49374 9.81911C9.75777 10.0878 9.75664 10.5181 9.49321 10.7855L9.48514 10.7935L8.46505 11.7958C8.03361 12.2196 7.30778 11.9213 7.29333 11.3225L7.29311 11.3042L7.29309 8.87329L7.2923 8.87368C7.04196 8.99196 6.73469 8.95122 6.52313 8.75006L6.51493 8.74214C6.24616 8.47814 6.23963 8.04793 6.49826 7.77592L6.50618 7.76773L7.49057 6.76549C7.91847 6.32982 8.65625 6.62542 8.67095 7.22991V7.22991ZM8 3.97539C8.62272 3.97539 9.12752 4.48019 9.12752 5.10291C9.12752 5.72563 8.62272 6.23042 8 6.23042C7.37728 6.23042 6.87248 5.72563 6.87248 5.10291C6.87248 4.48019 7.37728 3.97539 8 3.97539Z" fill="#CCCCCC"/>
</svg>
