<svg width="16" height="16" viewBox="0 0 16 16" fill="none" xmlns="http://www.w3.org/2000/svg">
<g clip-path="url(#clip0_1448_9)">
<path d="M16 10.4199C15.981 10.3345 15.9146 10.2491 15.7817 10.1827L14.5386 9.54687V4.38436C14.5386 4.33691 14.5291 4.29895 14.5101 4.2515C14.5101 4.24201 14.5006 4.24201 14.5006 4.23252L14.4721 4.17558C14.4626 4.1566 14.4437 4.13762 14.4342 4.12813C14.4152 4.10915 14.4057 4.09966 14.3867 4.09017C14.3677 4.08068 14.3488 4.0617 14.3393 4.05221C14.3108 4.03323 14.2823 4.02374 14.2539 4.02374L13.0581 3.76751L11.8624 3.51129C11.8529 3.51129 11.8434 3.51129 11.8244 3.5018H11.7865H11.3499H11.3215H11.312C11.3025 3.5018 11.293 3.5018 11.2835 3.51129L10.3915 3.6821V1.52789C10.3915 1.48993 10.382 1.44248 10.3725 1.40452L10.344 1.34758C10.3345 1.33809 10.325 1.31912 10.3155 1.30963C10.306 1.30014 10.2966 1.28116 10.2871 1.27167C10.2776 1.25269 10.2586 1.2432 10.2491 1.23371C10.2112 1.19575 10.1637 1.17677 10.1068 1.15779L7.09846 0.436553C7.08897 0.436553 7.07948 0.427063 7.0605 0.427063H6.92764H6.59549H6.56702H6.52906L2.37248 1.16728H2.3535C2.32503 1.17677 2.29656 1.18626 2.26809 1.20524C2.2586 1.21473 2.24911 1.21473 2.23962 1.22422C2.17319 1.27167 2.12574 1.33809 2.09727 1.4235C2.08778 1.45197 2.08778 1.48044 2.08778 1.5184V9.54687L0.265718 10.2396C0.256228 10.2491 0.237248 10.2491 0.227758 10.2586C0.218268 10.2586 0.218268 10.2681 0.208778 10.2681C0.199288 10.2776 0.180308 10.2776 0.170818 10.2871L0.142349 10.3061C0.132859 10.3156 0.123369 10.3156 0.113879 10.325C0.0664294 10.363 0.0379597 10.401 0.0189798 10.4484C0.00948991 10.4579 0.00948991 10.4769 0.00948992 10.4864C0.00948992 10.5054 0 10.5243 0 10.5433C0 10.5623 0 10.5813 0.00948992 10.6003C0.00948992 10.6097 0.00948992 10.6097 0.0189798 10.6192C0.0284698 10.6572 0.0474496 10.6857 0.0759193 10.7236C0.104389 10.7616 0.132859 10.7901 0.180308 10.8185L6.34875 15.4401C6.35824 15.4496 6.36773 15.4496 6.37722 15.4591C6.37722 15.4591 6.38671 15.4591 6.38671 15.4686C6.3962 15.4686 6.3962 15.4781 6.40569 15.4781C6.40569 15.4781 6.41518 15.4781 6.41518 15.4876C6.42467 15.4876 6.42467 15.4971 6.43416 15.4971C6.43416 15.4971 6.44365 15.4971 6.44365 15.5065C6.45314 15.5065 6.45314 15.516 6.46263 15.516C6.46263 15.516 6.47212 15.516 6.47212 15.5255C6.48161 15.5255 6.48161 15.535 6.4911 15.535C6.4911 15.535 6.50059 15.535 6.50059 15.5445C6.51008 15.5445 6.51008 15.554 6.51957 15.554C6.51957 15.554 6.52906 15.554 6.52906 15.5635C6.53855 15.5635 6.54804 15.573 6.55753 15.573H6.56702L6.60498 15.5825H6.61447C6.62396 15.5825 6.63345 15.592 6.64294 15.592H6.65243L6.67141 15.6014H7.03203C7.05101 15.6014 7.06999 15.6014 7.07948 15.592H7.08897C7.10795 15.592 7.12693 15.5825 7.13642 15.5825C7.1554 15.5825 7.16489 15.573 7.18387 15.573H7.19336C7.21234 15.5635 7.22183 15.5635 7.24081 15.554H7.2503C7.26928 15.5445 7.27877 15.5445 7.29775 15.535H7.30724C7.32622 15.5255 7.33571 15.516 7.3452 15.516L11.5682 13.1341L15.8007 10.7521C15.8482 10.7236 15.8861 10.7046 15.9146 10.6667L15.962 10.6192C15.9715 10.6003 15.981 10.5813 15.9905 10.5718C15.9905 10.5623 16 10.5623 16 10.5528C16 10.5433 16.0095 10.5338 16.0095 10.5243V10.5148C16 10.4769 16 10.4484 16 10.4199ZM10.3725 4.28946L11.3784 4.09966C11.4069 4.09017 11.4638 4.09017 11.5397 4.09017C11.6251 4.09017 11.7011 4.09966 11.7295 4.10915L13.0961 4.39385L11.4828 4.83987C11.3594 4.87783 11.2645 4.99171 11.2645 5.12457V10.8944L10.3725 10.5718V4.28946ZM13.9407 4.77345V9.81259L11.8624 10.828V5.35233L13.9407 4.77345ZM7.10795 12.6501V2.96087L9.7841 2.23015V11.4164L7.10795 12.6501ZM2.66667 1.7082L6.62396 1.00595C6.63345 1.00595 6.67141 0.996458 6.74733 0.996458C6.83274 0.996458 6.90866 1.00595 6.94662 1.01544L3.3879 1.7082C3.32147 1.71769 3.26453 1.78412 3.26453 1.85055V9.74616C3.26453 9.83157 3.33096 9.898 3.41637 9.898C3.50178 9.898 3.56821 9.83157 3.56821 9.74616V1.98341L7.55397 1.19575C7.57295 1.19575 7.59193 1.18626 7.61091 1.16728L7.84816 1.22422L4.35587 1.96443C4.28944 1.98341 4.24199 2.04035 4.24199 2.10678V10.1542C4.24199 10.2396 4.30842 10.3061 4.39383 10.3061C4.47924 10.3061 4.54567 10.2396 4.54567 10.1542V2.23015L8.53144 1.38554L8.75919 1.44248L5.46619 2.23015C5.39976 2.24913 5.35231 2.30607 5.35231 2.3725V10.7426C5.35231 10.828 5.41874 10.8944 5.50415 10.8944C5.58956 10.8944 5.65599 10.828 5.65599 10.7426V2.48637L9.39502 1.58483L9.65125 1.65126L6.73784 2.44842C6.61447 2.48637 6.51957 2.60025 6.51957 2.73311V12.5457L2.66667 10.1163V1.7082ZM7.04152 14.9751C7.02254 14.9846 6.97509 15.0036 6.89917 15.0036C6.79478 15.0036 6.71886 14.9751 6.69988 14.9561L0.911032 10.6192L2.0688 10.1732C2.0688 10.2112 2.07829 10.2491 2.08778 10.2871C2.08778 10.2966 2.09727 10.3156 2.09727 10.325C2.10676 10.3345 2.10676 10.3535 2.11625 10.363L2.13523 10.401C2.14472 10.4105 2.14472 10.4199 2.15421 10.4389L2.17319 10.4769C2.18268 10.4959 2.19217 10.5054 2.21115 10.5148C2.22064 10.5243 2.23013 10.5338 2.23013 10.5433C2.2586 10.5718 2.27758 10.5908 2.30605 10.6003L6.55753 13.2859C6.56702 13.2954 6.57651 13.2954 6.586 13.3049L6.59549 13.3144C6.60498 13.3144 6.61447 13.3239 6.61447 13.3239C6.61447 13.3239 6.62396 13.3239 6.62396 13.3334C6.63345 13.3334 6.64294 13.3428 6.64294 13.3428H6.65243L6.67141 13.3523H6.69039C6.69988 13.3523 6.70937 13.3523 6.71886 13.3618H6.72835C6.73784 13.3618 6.74733 13.3618 6.75682 13.3713H6.99407C7.00356 13.3713 7.00356 13.3713 7.01305 13.3618H7.02254C7.03203 13.3618 7.03203 13.3618 7.04152 13.3523H7.05101C7.0605 13.3523 7.06999 13.3428 7.07948 13.3428L10.1068 11.9573C10.1732 11.9288 10.2301 11.8814 10.2776 11.815C10.2966 11.796 10.306 11.777 10.3155 11.7485C10.325 11.739 10.325 11.7296 10.325 11.7201C10.3535 11.6631 10.3725 11.5967 10.3725 11.5303V11.2361L10.6477 11.3405L11.274 11.5682C11.2835 11.5682 11.293 11.5777 11.3025 11.5777H11.312C11.3215 11.5777 11.3215 11.5777 11.331 11.5872H11.5777C11.5872 11.5872 11.6062 11.5872 11.6157 11.5777H11.6726C11.6821 11.5777 11.6916 11.5777 11.7011 11.5682H11.72L11.739 11.5587H11.7485C11.758 11.5587 11.7675 11.5492 11.7675 11.5492H11.777C11.7865 11.5492 11.796 11.5398 11.8055 11.5398L14.2444 10.3535C14.2823 10.3345 14.3203 10.3156 14.3488 10.2776L14.3962 10.2301C14.4057 10.2207 14.4152 10.2112 14.4247 10.1922L15.0415 10.5054L7.04152 14.9751Z" fill="#727E99"/>
</g>
<defs>
<clipPath id="clip0_1448_9">
<rect width="16" height="16" fill="white"/>
</clipPath>
</defs>
</svg>
